<?xml version="1.0" standalone="no"?>
<!DOCTYPE svg PUBLIC "-//W3C//DTD SVG 20010904//EN"
 "http://www.w3.org/TR/2001/REC-SVG-20010904/DTD/svg10.dtd">
<svg version="1.0" xmlns="http://www.w3.org/2000/svg"
 width="928.000000pt" height="928.000000pt" viewBox="0 0 928.000000 928.000000"
 preserveAspectRatio="xMidYMid meet">
<metadata>
Created by potrace 1.14, written by Peter Selinger 2001-2017
</metadata>
<g transform="translate(0.000000,928.000000) scale(0.100000,-0.100000)"
fill="#000000" stroke="none">
<path d="M4240 7609 c-41 -4 -88 -13 -105 -19 -16 -7 -35 -14 -42 -16 -14 -3
-79 -50 -114 -84 -14 -14 -46 -54 -70 -90 -24 -36 -48 -69 -52 -75 -4 -5 -73
-104 -152 -220 -79 -115 -149 -215 -154 -222 -6 -7 -11 -15 -11 -19 0 -3 -13
-23 -30 -44 -16 -21 -30 -42 -30 -48 0 -6 -4 -12 -8 -14 -8 -3 -57 -72 -241
-343 -41 -60 -78 -111 -83 -113 -4 -2 -8 -10 -8 -18 0 -8 -4 -14 -10 -14 -5 0
-10 -5 -10 -10 0 -9 -35 -65 -50 -80 -3 -3 -19 -25 -35 -50 -17 -25 -33 -46
-37 -48 -5 -2 -8 -8 -8 -12 0 -9 -35 -64 -58 -90 -7 -8 -46 -64 -87 -125 -72
-108 -105 -156 -260 -380 -41 -60 -101 -148 -132 -195 -32 -47 -60 -87 -63
-90 -3 -3 -32 -45 -65 -95 -33 -49 -63 -91 -67 -93 -5 -2 -8 -9 -8 -15 0 -7
-11 -24 -25 -39 -14 -15 -25 -29 -25 -32 0 -3 -29 -47 -65 -98 -35 -51 -69
-100 -75 -108 -5 -8 -33 -49 -61 -90 -28 -41 -63 -93 -77 -115 -15 -22 -29
-42 -32 -45 -3 -3 -22 -30 -42 -60 -20 -30 -75 -111 -122 -180 -47 -69 -116
-170 -153 -225 -37 -55 -70 -102 -73 -105 -3 -3 -23 -32 -45 -65 -22 -33 -43
-61 -47 -63 -5 -2 -8 -10 -8 -18 0 -8 -4 -14 -10 -14 -5 0 -10 -6 -10 -14 0
-8 -3 -16 -7 -18 -5 -1 -20 -21 -35 -43 -14 -22 -79 -116 -142 -208 -64 -93
-116 -170 -116 -173 0 -2 -7 -12 -16 -21 -8 -10 -84 -117 -168 -238 -219 -317
-228 -330 -238 -333 -4 -2 -8 -8 -8 -13 0 -9 -37 -66 -50 -79 -3 -3 -64 -88
-135 -190 -71 -102 -133 -186 -137 -188 -4 -2 -8 -8 -8 -13 0 -6 -5 -15 -10
-22 -22 -26 -69 -91 -140 -194 -41 -59 -83 -117 -92 -127 -10 -11 -18 -26 -18
-33 0 -7 -4 -13 -10 -13 -5 0 -10 -4 -10 -10 0 -5 -9 -19 -20 -30 -15 -15 -20
-33 -20 -71 l0 -51 413 5 c504 7 510 8 602 52 64 32 165 126 165 154 0 5 4 11
9 13 27 10 494 678 611 873 13 22 27 42 30 45 9 8 92 148 143 244 48 88 174
225 236 257 14 8 28 16 31 19 24 24 171 85 232 95 72 13 153 22 177 19 14 -1
57 -5 94 -9 132 -13 737 -25 737 -15 0 3 173 6 384 8 l384 4 1 -854 c0 -469 0
-858 1 -863 0 -7 142 -11 430 -10 l430 0 0 2962 0 2963 -127 1 c-438 4 -677 4
-743 -2z m1 -1176 c1 -16 1 -32 0 -36 -1 -4 -1 -18 -1 -30 -1 -12 -1 -47 -1
-77 0 -30 0 -62 0 -70 1 -8 0 -37 0 -65 -1 -27 -1 -62 0 -77 1 -28 1 -99 0
-160 0 -18 0 -59 1 -92 1 -32 -1 -60 -3 -63 -3 -2 -1 -20 3 -39 4 -19 4 -36 0
-39 -4 -3 -4 -21 0 -40 4 -19 4 -37 0 -40 -4 -3 -4 -21 0 -40 4 -19 4 -37 0
-40 -4 -3 -4 -21 0 -40 4 -19 4 -37 0 -40 -4 -3 -4 -21 0 -40 4 -19 4 -37 0
-40 -4 -3 -4 -21 0 -40 4 -19 4 -37 0 -40 -4 -3 -4 -21 0 -40 4 -19 4 -37 0
-40 -4 -3 -4 -20 0 -39 4 -19 4 -40 -1 -47 -4 -7 -5 -17 -2 -21 2 -5 4 -39 3
-76 -1 -37 -1 -74 -1 -82 1 -8 0 -37 0 -65 -1 -27 -1 -62 0 -77 0 -27 1 -94 0
-160 -1 -126 -1 -225 0 -238 1 -21 -1 -120 -2 -148 l-2 -23 -607 0 c-335 0
-657 1 -718 1 -60 0 -110 4 -110 8 0 4 7 17 15 27 18 24 23 31 249 385 96 151
179 280 183 285 14 17 177 274 188 295 5 11 13 20 17 20 5 0 8 5 8 10 0 6 15
32 33 58 17 26 37 55 42 65 31 50 270 423 275 427 3 3 28 41 55 85 27 44 60
96 72 115 13 19 28 42 33 50 5 8 37 56 70 106 33 51 60 97 60 103 0 6 3 11 8
11 4 0 18 20 32 45 14 25 28 45 32 45 5 0 8 6 8 13 0 7 9 23 20 35 11 12 20
26 20 32 0 24 20 8 21 -17z"/>
<path d="M6197 7584 c-2 -3 -557 -12 -785 -13 l-82 -1 2 -2942 3 -2943 428 0
c375 0 427 1 427 15 1 8 1 617 1 1352 0 808 4 1340 10 1343 5 4 9 1 9 -5 0
-11 43 -69 88 -120 12 -13 22 -28 22 -32 0 -3 6 -13 13 -20 16 -17 121 -164
159 -223 7 -10 18 -24 23 -30 6 -7 28 -38 50 -71 22 -32 43 -61 46 -64 3 -3
36 -50 74 -105 38 -55 74 -105 80 -112 12 -14 206 -288 220 -311 6 -9 12 -19
16 -22 3 -3 25 -34 50 -70 24 -36 47 -67 50 -70 6 -5 87 -121 104 -149 6 -9
12 -18 16 -21 3 -3 21 -27 40 -55 18 -27 36 -52 39 -55 3 -3 25 -34 50 -70 24
-36 48 -69 53 -75 4 -5 46 -64 93 -130 46 -66 91 -128 99 -138 8 -9 15 -19 15
-22 0 -3 15 -24 33 -48 17 -24 39 -54 47 -67 8 -12 20 -28 25 -34 6 -6 26 -33
45 -61 19 -27 37 -51 42 -53 4 -2 8 -8 8 -13 0 -7 27 -46 83 -119 7 -9 27 -38
46 -65 134 -194 204 -269 260 -280 69 -14 375 -19 894 -16 l149 1 -38 53 c-21
28 -41 54 -44 57 -3 3 -30 39 -60 80 -30 41 -60 82 -67 90 -7 8 -30 40 -52 70
-22 30 -46 62 -54 70 -7 8 -24 31 -38 50 -13 19 -29 42 -36 50 -6 8 -47 62
-90 120 -43 58 -81 110 -86 115 -10 12 -204 271 -232 309 -44 60 -273 367
-300 401 -8 11 -37 49 -62 85 -26 36 -50 67 -53 70 -3 3 -37 48 -75 100 -39
52 -75 102 -82 110 -29 37 -99 130 -113 151 -8 12 -23 31 -32 41 -10 10 -18
21 -18 24 0 3 -15 24 -33 47 -19 23 -46 58 -60 78 l-27 36 38 1 c44 2 121 10
177 19 22 4 45 7 50 8 53 5 233 55 320 88 77 30 270 132 346 183 120 81 278
221 359 321 68 82 210 291 210 308 0 2 15 36 34 77 59 126 119 327 132 443 3
22 8 65 12 95 8 67 7 410 -1 500 -12 116 -28 225 -43 290 -3 14 -8 34 -10 45
-11 60 -48 191 -55 200 -5 5 -9 16 -9 25 0 50 -206 450 -232 450 -4 0 -8 5 -8
11 0 22 -137 170 -235 255 -105 90 -381 254 -399 237 -3 -4 -6 -1 -6 5 0 7
-10 12 -23 12 -13 0 -27 4 -33 8 -44 38 -350 96 -558 107 -45 3 -133 7 -196
11 -111 6 -1258 13 -1263 8z m973 -778 c133 -11 187 -18 270 -37 47 -11 94
-21 105 -23 11 -2 27 -6 35 -9 8 -3 44 -15 80 -28 96 -32 258 -114 326 -165
265 -198 415 -497 408 -814 -5 -240 -30 -370 -102 -517 -29 -61 -71 -133 -81
-143 -4 -3 -24 -27 -46 -55 -88 -109 -204 -198 -337 -259 -69 -31 -102 -45
-113 -46 -3 0 -26 -10 -51 -21 -55 -23 -241 -73 -334 -89 -88 -16 -91 -16
-275 -37 -27 -3 -231 -6 -452 -7 l-403 -3 -1 36 c0 48 0 2147 0 2187 l1 30
183 0 c100 -1 232 1 292 4 131 6 404 4 495 -4z"/>
</g>
</svg>
