<?xml version="1.0" standalone="no"?>
<!DOCTYPE svg PUBLIC "-//W3C//DTD SVG 20010904//EN"
 "http://www.w3.org/TR/2001/REC-SVG-20010904/DTD/svg10.dtd">
<svg version="1.0" xmlns="http://www.w3.org/2000/svg"
 width="434.000000pt" height="434.000000pt" viewBox="0 0 434.000000 434.000000"
 preserveAspectRatio="xMidYMid meet">
<metadata>
Created by potrace 1.14, written by Peter Selinger 2001-2017
</metadata>
<g transform="translate(0.000000,434.000000) scale(0.100000,-0.100000)"
fill="#000000" stroke="none">
<path d="M1316 4327 c-38 -13 -64 -36 -82 -72 -8 -16 -20 -39 -27 -50 -25 -39
-41 -70 -43 -80 -1 -5 -12 -39 -24 -75 -20 -59 -29 -100 -34 -155 -1 -11 -5
-25 -9 -31 -10 -18 -7 -765 4 -785 12 -22 -20 -99 -60 -145 -16 -18 -35 -49
-42 -68 -7 -20 -17 -36 -22 -36 -4 0 -5 -4 -2 -10 3 -5 1 -10 -4 -10 -6 0 -10
-3 -9 -7 2 -10 -14 -47 -23 -53 -17 -12 -57 -100 -69 -150 -7 -30 -17 -58 -22
-61 -5 -3 -10 -16 -11 -27 -1 -12 -4 -22 -8 -22 -4 0 -10 -17 -14 -37 -4 -21
-10 -42 -13 -48 -4 -5 -7 -16 -8 -23 -3 -18 -48 -126 -55 -132 -15 -12 -59
-107 -59 -127 0 -13 -4 -23 -9 -23 -4 0 -18 -35 -30 -78 -38 -128 -43 -146
-54 -172 -12 -28 -16 -45 -19 -77 -1 -13 -5 -23 -8 -23 -3 0 -6 -12 -7 -28 -1
-15 -4 -45 -8 -67 -10 -56 -15 -246 -7 -259 3 -6 8 -22 10 -36 2 -13 13 -52
24 -85 29 -84 29 -93 -3 -156 -15 -31 -27 -64 -25 -74 4 -24 31 -42 76 -50 53
-9 58 -36 20 -108 -16 -31 -26 -57 -22 -57 4 0 3 -4 -3 -8 -12 -9 -35 -48 -35
-61 0 -5 -5 -22 -11 -38 -10 -24 -15 -96 -9 -120 2 -5 1 -12 0 -18 -4 -15 -1
-147 4 -175 7 -44 47 -119 69 -128 4 -2 7 -8 7 -13 0 -6 36 -47 80 -91 44 -45
80 -79 80 -75 0 4 16 -2 35 -13 20 -11 39 -20 44 -20 5 0 30 -10 57 -22 27
-12 56 -23 64 -25 61 -13 82 -16 135 -16 71 -1 183 12 206 24 9 4 28 10 42 13
15 2 53 14 84 25 32 11 83 23 113 26 30 4 62 11 71 15 8 5 29 9 45 9 42 0 71
6 134 24 72 22 81 28 84 63 6 59 13 64 85 64 36 -1 84 0 106 1 72 2 84 -1 101
-25 8 -14 18 -40 20 -58 8 -54 24 -78 53 -78 38 1 59 21 77 74 9 25 22 46 30
46 8 0 17 1 21 1 8 2 36 -41 53 -80 19 -44 60 -74 92 -67 25 5 77 48 79 65 0
3 3 15 5 26 3 11 6 36 7 55 2 34 4 35 52 44 70 12 194 54 212 71 8 8 22 15 32
15 10 0 26 9 36 20 10 11 33 22 51 26 19 3 37 10 40 15 3 5 12 9 21 9 8 0 29
11 47 25 17 14 36 29 42 34 5 4 21 14 35 21 29 16 79 62 79 73 0 4 9 17 20 29
10 12 17 24 15 28 -3 4 2 13 10 20 8 7 21 24 28 39 43 82 60 111 72 121 8 6
17 26 21 43 3 18 10 37 15 43 5 6 10 19 12 30 1 10 5 24 8 29 11 19 21 70 25
125 2 30 7 75 11 100 7 45 7 52 -3 125 -2 22 -7 66 -9 99 -3 32 -8 72 -13 90
-11 41 -6 150 8 154 5 2 10 7 10 12 0 4 13 22 30 40 16 18 27 36 24 41 -3 5
-1 9 5 9 5 0 12 10 16 23 3 12 10 31 14 42 10 26 26 72 57 165 25 74 31 110
35 193 3 57 22 84 69 97 22 6 40 15 40 20 0 15 -23 60 -30 60 -8 0 -25 41 -34
83 -9 37 -24 41 -72 20 -28 -12 -69 -18 -144 -19 -132 -2 -159 11 -176 81 -9
36 -70 180 -105 246 -21 41 -24 77 -9 129 6 19 11 55 11 80 1 25 5 52 10 60 4
9 10 41 13 73 4 32 11 68 16 81 5 13 9 77 9 142 0 66 1 124 2 129 1 6 0 15 -1
20 -2 12 -1 370 1 382 3 11 -10 61 -28 108 -8 22 -17 52 -20 68 -2 15 -11 39
-19 55 -7 15 -14 35 -14 45 0 37 -68 135 -84 120 -3 -4 -6 0 -6 7 0 7 -3 11
-6 7 -3 -3 -25 0 -47 7 -27 8 -54 9 -77 4 -19 -5 -40 -10 -47 -11 -45 -11
-173 -183 -173 -233 0 -7 -6 -19 -13 -26 -8 -7 -30 -56 -50 -108 -19 -52 -41
-108 -48 -125 -7 -16 -14 -41 -16 -55 -2 -14 -15 -58 -29 -99 -14 -40 -26 -85
-29 -100 -2 -14 -6 -35 -8 -46 -3 -11 -8 -33 -12 -50 -13 -55 -42 -136 -52
-146 -14 -14 -85 -19 -107 -7 -11 6 -65 12 -121 14 -55 2 -122 8 -150 13 -27
5 -52 8 -56 5 -28 -17 -171 -19 -210 -3 -36 14 -65 86 -68 168 -1 36 -6 72
-11 81 -5 9 -10 27 -12 41 -2 13 -7 30 -11 36 -5 7 -10 21 -12 30 -2 10 -13
47 -25 83 -34 101 -79 283 -74 292 3 4 1 8 -3 8 -5 0 -16 22 -26 49 -9 27 -33
73 -52 101 -19 29 -35 55 -35 60 0 19 -62 70 -88 71 -15 1 -47 2 -72 4 -25 1
-58 -2 -74 -8z"/>
</g>
</svg>
